<svg id="Layer_1" data-name="Layer 1" xmlns="http://www.w3.org/2000/svg" viewBox="0 0 845 518">
  <defs>
    <style>
      .cls-1 {
        stroke: #000;
        stroke-miterlimit: 10;
        stroke-width: 16px;
      }
    </style>
  </defs>
  <path class="cls-1" d="M727.91,422.49C670.46,339,610.8,257.08,552.2,174.31c-28.3,41.49-57.64,81.86-86.46,122.93,15.27,22.37,31.76,44,46.59,66.73l-8.45,6.5c-14-22.31-31-42.58-44.94-64.94-27.44,39.46-55.82,78-83.87,117H361.49c29.83-42,60.66-83,90.3-125.15-39-59.9-82.21-117.06-122.68-176.06-70.66,100.45-140.89,201-211.81,301.22H103.52C180.23,316,253.25,209.36,330,103c12,15,36,48,49,68,25.9,39.85,52.46,77.84,79.83,116.63,31.81-43,61.2-87.79,93-130.78,65.38,86.64,126,177.84,190.08,265.64Z"/>
</svg>
