<?xml version="1.0" encoding="utf-8"?>
<!-- Generator: Adobe Illustrator 24.1.3, SVG Export Plug-In . SVG Version: 6.00 Build 0)  -->
<svg version="1.1" id="Layer_1" xmlns="http://www.w3.org/2000/svg" xmlns:xlink="http://www.w3.org/1999/xlink" x="0px" y="0px"
	 viewBox="0 0 1624 395" style="enable-background:new 0 0 1624 395;" xml:space="preserve">
<style type="text/css">
	.st0{fill:#FFFFFF;stroke:#000000;stroke-width:14;stroke-linecap:square;stroke-linejoin:bevel;stroke-miterlimit:10;}
	.st1{fill:#FFFFFF;stroke:#000000;stroke-width:14;stroke-miterlimit:10;}
	.st2{fill:#FFFFFF;stroke:#000000;stroke-miterlimit:10;}
	.st3{stroke:#000000;stroke-width:16;stroke-miterlimit:10;}
	.st4{stroke:#000000;stroke-width:7;stroke-miterlimit:10;}
</style>
<g>
	<path class="st4" d="M540.42,323.64c-41.26-65.35-84.1-129.39-126.19-194.13c-20.39,32.51-41.53,64.12-62.29,96.3
		c10.96,17.5,22.81,34.44,33.46,52.2c-2.06,1.73-4.09,3.42-6.09,5.09c-10.07-17.45-22.28-33.31-32.28-50.8
		c-19.77,30.91-40.21,61.09-60.42,91.65c-3.05,0-6.25,0.01-9.77,0.01c21.49-32.89,43.7-65.05,65.06-98.04
		c-28-46.86-59.04-91.57-88.11-137.72c-50.91,78.68-101.5,157.46-152.6,235.96c-3.4,0-6.6,0.01-9.91,0.01
		c55.26-83.43,107.88-166.99,163.17-250.31c8.62,11.73,25.86,37.54,35.19,53.19c18.6,31.17,37.67,60.89,57.33,91.23
		c22.91-33.69,44.09-68.77,66.97-102.45c46.96,67.76,90.46,139.11,136.52,207.79C546.88,323.63,543.67,323.64,540.42,323.64z"/>
	<g>
		<path d="M612.67,281.94v-81h28.57c14.11,0,25.7,11.36,25.7,25.24c0,14.23-11.59,25.7-25.58,25.7h-17.32v30.06H612.67z
			 M624.02,211.26v30.75h15.49c8.49,0,15.72-6.88,15.72-15.83c0-8.49-7.23-14.92-15.72-14.92H624.02z"/>
		<path d="M690.8,200.94h11.36v81H690.8V200.94z"/>
		<path d="M803.23,265.65c-7.11,10.1-18.7,17.67-33.62,17.67c-23.18,0-41.76-18.01-41.76-41.88c0-23.86,18.36-41.88,41.19-41.88
			c16.06,0,27.19,7.8,33.39,16.52l-8.38,7.69c-5.16-7.23-13.31-13.08-25.01-13.08c-16.75,0-29.49,13.19-29.49,30.75
			c0,17.55,12.96,30.75,30.06,30.75c11.7,0,19.85-5.74,25.36-13.65L803.23,265.65z"/>
		<path d="M861.74,199.56c23.41,0,41.76,18.01,41.76,41.88c0,23.86-18.36,41.88-41.76,41.88c-23.41,0-41.76-18.01-41.76-41.88
			C819.98,217.57,838.34,199.56,861.74,199.56z M861.74,272.19c16.52,0,30.06-13.08,30.06-30.75c0-17.67-13.54-30.75-30.06-30.75
			c-16.52,0-30.06,13.08-30.06,30.75C831.68,259.11,845.22,272.19,861.74,272.19z"/>
		<path d="M966.49,200.94h28.22c23.63,0,40.84,17.9,40.84,40.39c0,22.95-17.21,40.62-40.84,40.62h-28.22V200.94z M993.68,271.5
			c16.52,0,30.06-12.51,30.06-30.17c0-17.32-13.42-30.06-29.95-30.06h-15.95v60.23H993.68z"/>
		<path d="M1049.1,281.94l31.44-81h11.93l31.44,81h-11.7l-8.49-22.03h-34.42l-8.49,22.03H1049.1z M1100.04,249.24l-13.54-35.91
			l-13.54,35.91H1100.04z"/>
		<path d="M1179.08,281.94v-81h32.47c14,0,25.36,9.98,25.36,24.67c0,11.59-7.23,19.62-17.32,23.18l16.64,33.16h-12.96l-15.6-32.12
			h-17.21v32.12H1179.08z M1190.44,211.26v28.91h19.96c7.57,0,14.69-5.51,14.69-14.92c0-8.61-7.11-14-14.69-14H1190.44z"/>
		<path d="M1298.52,199.56c23.41,0,41.76,18.01,41.76,41.88c0,23.86-18.36,41.88-41.76,41.88s-41.76-18.01-41.76-41.88
			C1256.76,217.57,1275.11,199.56,1298.52,199.56z M1298.52,272.19c16.52,0,30.06-13.08,30.06-30.75
			c0-17.67-13.54-30.75-30.06-30.75c-16.52,0-30.06,13.08-30.06,30.75C1268.46,259.11,1282,272.19,1298.52,272.19z"/>
		<path d="M1387.43,210.12c-8.83,0-14.57,4.47-14.57,10.79c0,8.15,7.92,10.79,18.7,15.72c13.08,5.97,22.72,10.44,22.72,24.44
			c0,11.59-9.52,22.14-27.42,22.14c-11.7,0-22.14-5.39-27.65-15.6l9.52-6.42c4.13,7.8,10.67,11.36,18.47,11.36
			c9.75,0,15.6-5.51,15.6-11.01c0-8.38-7.23-10.78-18.01-15.72c-11.01-5.05-23.41-9.18-23.41-24.55c0-11.93,10.9-21.68,26.27-21.68
			c9.29,0,19.73,3.9,25.36,13.88l-8.83,6.08C1399.83,212.64,1393.51,210.12,1387.43,210.12z"/>
		<path d="M1429.19,281.94l31.44-81h11.93l31.44,81h-11.7l-8.49-22.03h-34.42l-8.49,22.03H1429.19z M1480.14,249.24l-13.54-35.91
			l-13.54,35.91H1480.14z"/>
	</g>
</g>
</svg>
